<svg width="19" height="19" viewBox="0 0 19 19" fill="none" xmlns="http://www.w3.org/2000/svg">
<g clip-path="url(#clip0_748_357)">
<path d="M11.9662 10.0579C11.9662 10.7951 11.6733 11.5021 11.1521 12.0234C10.6308 12.5447 9.92378 12.8375 9.18659 12.8375C8.44939 12.8375 7.74239 12.5447 7.22111 12.0234C6.69983 11.5021 6.40698 10.7951 6.40698 10.0579C6.40698 9.32073 6.69983 8.61373 7.22111 8.09245C7.74239 7.57117 8.44939 7.27832 9.18659 7.27832C9.92378 7.27832 10.6308 7.57117 11.1521 8.09245C11.6733 8.61373 11.9662 9.32073 11.9662 10.0579Z" fill="white"/>
<path d="M2.51568 5.05523C1.92592 5.05523 1.36032 5.28951 0.943294 5.70653C0.526273 6.12355 0.291992 6.68915 0.291992 7.27891L0.291992 13.95C0.291992 14.5397 0.526273 15.1053 0.943294 15.5223C1.36032 15.9394 1.92592 16.1736 2.51568 16.1736H15.8578C16.4475 16.1736 17.0131 15.9394 17.4302 15.5223C17.8472 15.1053 18.0815 14.5397 18.0815 13.95V7.27891C18.0815 6.68915 17.8472 6.12355 17.4302 5.70653C17.0131 5.28951 16.4475 5.05523 15.8578 5.05523H14.5547C13.965 5.0551 13.3995 4.82074 12.9826 4.40369L12.062 3.48308C11.645 3.06603 11.0795 2.83167 10.4898 2.83154H7.88365C7.29394 2.83167 6.72843 3.06603 6.3115 3.48308L5.3909 4.40369C4.97398 4.82074 4.40846 5.0551 3.81876 5.05523H2.51568ZM3.0716 7.27891C2.92416 7.27891 2.78276 7.22034 2.6785 7.11609C2.57425 7.01183 2.51568 6.87043 2.51568 6.72299C2.51568 6.57555 2.57425 6.43415 2.6785 6.32989C2.78276 6.22564 2.92416 6.16707 3.0716 6.16707C3.21904 6.16707 3.36044 6.22564 3.46469 6.32989C3.56895 6.43415 3.62752 6.57555 3.62752 6.72299C3.62752 6.87043 3.56895 7.01183 3.46469 7.11609C3.36044 7.22034 3.21904 7.27891 3.0716 7.27891ZM13.0782 10.0585C13.0782 11.0906 12.6682 12.0804 11.9384 12.8102C11.2086 13.54 10.2188 13.95 9.18673 13.95C8.15465 13.95 7.16485 13.54 6.43506 12.8102C5.70527 12.0804 5.29528 11.0906 5.29528 10.0585C5.29528 9.02644 5.70527 8.03664 6.43506 7.30685C7.16485 6.57706 8.15465 6.16707 9.18673 6.16707C10.2188 6.16707 11.2086 6.57706 11.9384 7.30685C12.6682 8.03664 13.0782 9.02644 13.0782 10.0585Z" fill="white"/>
</g>
<defs>
<clipPath id="clip0_748_357">
<rect width="17.7895" height="17.7895" fill="white" transform="translate(0.292236 0.607422)"/>
</clipPath>
</defs>
</svg>
