<svg width="25" height="25" viewBox="0 0 25 25" fill="none" xmlns="http://www.w3.org/2000/svg">
<mask id="mask0_644_381" style="mask-type:alpha" maskUnits="userSpaceOnUse" x="0" y="0" width="25" height="25">
<rect x="0.0751953" y="0.248291" width="24" height="24" fill="#D9D9D9"/>
</mask>
<g mask="url(#mask0_644_381)">
<path d="M6.0752 22.2483C5.24186 22.2483 4.53353 21.9566 3.9502 21.3733C3.36686 20.79 3.0752 20.0816 3.0752 19.2483V16.2483H6.0752V2.24829H21.0752V19.2483C21.0752 20.0816 20.7835 20.79 20.2002 21.3733C19.6169 21.9566 18.9085 22.2483 18.0752 22.2483H6.0752ZM18.0752 20.2483C18.3585 20.2483 18.596 20.1525 18.7877 19.9608C18.9794 19.7691 19.0752 19.5316 19.0752 19.2483V4.24829H8.0752V16.2483H17.0752V19.2483C17.0752 19.5316 17.171 19.7691 17.3627 19.9608C17.5544 20.1525 17.7919 20.2483 18.0752 20.2483ZM9.0752 9.24829V7.24829H18.0752V9.24829H9.0752ZM9.0752 12.2483V10.2483H18.0752V12.2483H9.0752ZM6.0752 20.2483H15.0752V18.2483H5.0752V19.2483C5.0752 19.5316 5.17103 19.7691 5.3627 19.9608C5.55436 20.1525 5.79186 20.2483 6.0752 20.2483ZM6.0752 20.2483H5.0752H15.0752H6.0752Z" fill="#5E3ACC"/>
</g>
</svg>
