<svg width="25" height="25" viewBox="0 0 25 25" fill="none" xmlns="http://www.w3.org/2000/svg">
<mask id="mask0_644_391" style="mask-type:alpha" maskUnits="userSpaceOnUse" x="0" y="0" width="25" height="25">
<rect x="0.686279" y="0.827393" width="24" height="24" fill="#D9D9D9"/>
</mask>
<g mask="url(#mask0_644_391)">
<path d="M6.68628 17.8274H11.6863V15.8274H6.68628V17.8274ZM16.6863 17.8274H18.6863V15.8274H16.6863V17.8274ZM6.68628 13.8274H11.6863V11.8274H6.68628V13.8274ZM16.6863 13.8274H18.6863V7.82739H16.6863V13.8274ZM6.68628 9.82739H11.6863V7.82739H6.68628V9.82739ZM4.68628 21.8274C4.13628 21.8274 3.66545 21.6316 3.27378 21.2399C2.88211 20.8482 2.68628 20.3774 2.68628 19.8274V5.82739C2.68628 5.27739 2.88211 4.80656 3.27378 4.41489C3.66545 4.02323 4.13628 3.82739 4.68628 3.82739H20.6863C21.2363 3.82739 21.7071 4.02323 22.0988 4.41489C22.4904 4.80656 22.6863 5.27739 22.6863 5.82739V19.8274C22.6863 20.3774 22.4904 20.8482 22.0988 21.2399C21.7071 21.6316 21.2363 21.8274 20.6863 21.8274H4.68628ZM4.68628 19.8274H20.6863V5.82739H4.68628V19.8274Z" fill="#5E3ACC"/>
</g>
</svg>
